<mxfile host="app.diagrams.net" agent="Mozilla/5.0 (Windows NT 10.0; Win64; x64) AppleWebKit/537.36 (KHTML, like Gecko) Chrome/135.0.0.0 Safari/537.36" version="27.0.6">
  <diagram name="Page-1" id="pvXtCuqlx9BJ-Klr0lnQ">
    <mxGraphModel dx="898" dy="750" grid="1" gridSize="10" guides="1" tooltips="1" connect="1" arrows="1" fold="1" page="1" pageScale="1" pageWidth="827" pageHeight="1169" math="0" shadow="0">
      <root>
        <mxCell id="0" />
        <mxCell id="1" parent="0" />
        <mxCell id="KPPIBU8r4VzU2irEwszz-1" value="" style="rounded=1;whiteSpace=wrap;html=1;" vertex="1" parent="1">
          <mxGeometry x="160" y="120" width="520" height="480" as="geometry" />
        </mxCell>
        <mxCell id="KPPIBU8r4VzU2irEwszz-2" value="&lt;font style=&quot;font-size: 16px; color: light-dark(rgb(250, 0, 0), rgb(237, 237, 237));&quot;&gt;&lt;b&gt;Diagramme UseCase&lt;/b&gt;&lt;/font&gt;" style="shape=hexagon;perimeter=hexagonPerimeter2;whiteSpace=wrap;html=1;fixedSize=1;fillColor=#f8cecc;strokeColor=#b85450;" vertex="1" parent="1">
          <mxGeometry x="314" y="60" width="200" height="50" as="geometry" />
        </mxCell>
        <mxCell id="KPPIBU8r4VzU2irEwszz-11" style="rounded=0;orthogonalLoop=1;jettySize=auto;html=1;endArrow=none;startFill=0;" edge="1" parent="1" source="KPPIBU8r4VzU2irEwszz-3" target="KPPIBU8r4VzU2irEwszz-5">
          <mxGeometry relative="1" as="geometry" />
        </mxCell>
        <mxCell id="KPPIBU8r4VzU2irEwszz-12" style="rounded=0;orthogonalLoop=1;jettySize=auto;html=1;endArrow=none;startFill=0;" edge="1" parent="1" source="KPPIBU8r4VzU2irEwszz-3" target="KPPIBU8r4VzU2irEwszz-8">
          <mxGeometry relative="1" as="geometry" />
        </mxCell>
        <mxCell id="KPPIBU8r4VzU2irEwszz-3" value="Utilisateur" style="shape=umlActor;verticalLabelPosition=bottom;verticalAlign=top;html=1;outlineConnect=0;" vertex="1" parent="1">
          <mxGeometry x="60" y="190" width="30" height="60" as="geometry" />
        </mxCell>
        <mxCell id="KPPIBU8r4VzU2irEwszz-10" style="edgeStyle=orthogonalEdgeStyle;rounded=0;orthogonalLoop=1;jettySize=auto;html=1;endArrow=block;endFill=0;" edge="1" parent="1" source="KPPIBU8r4VzU2irEwszz-4" target="KPPIBU8r4VzU2irEwszz-3">
          <mxGeometry relative="1" as="geometry" />
        </mxCell>
        <mxCell id="KPPIBU8r4VzU2irEwszz-4" value="Administrateur" style="shape=umlActor;verticalLabelPosition=bottom;verticalAlign=top;html=1;outlineConnect=0;" vertex="1" parent="1">
          <mxGeometry x="60" y="400" width="30" height="60" as="geometry" />
        </mxCell>
        <mxCell id="KPPIBU8r4VzU2irEwszz-5" value="Voir Planning" style="ellipse;whiteSpace=wrap;html=1;" vertex="1" parent="1">
          <mxGeometry x="220" y="185" width="140" height="70" as="geometry" />
        </mxCell>
        <mxCell id="KPPIBU8r4VzU2irEwszz-7" value="&lt;font style=&quot;font-size: 14px;&quot;&gt;Système soumis à l&#39;authentification&lt;/font&gt;" style="shape=note;whiteSpace=wrap;html=1;backgroundOutline=1;darkOpacity=0.05;fillColor=#f5f5f5;fontColor=#333333;strokeColor=#666666;" vertex="1" parent="1">
          <mxGeometry x="560" y="160" width="170" height="100" as="geometry" />
        </mxCell>
        <mxCell id="KPPIBU8r4VzU2irEwszz-8" value="Gérer la réservation" style="ellipse;whiteSpace=wrap;html=1;" vertex="1" parent="1">
          <mxGeometry x="220" y="280" width="140" height="70" as="geometry" />
        </mxCell>
        <mxCell id="KPPIBU8r4VzU2irEwszz-9" value="Use Case" style="ellipse;whiteSpace=wrap;html=1;" vertex="1" parent="1">
          <mxGeometry x="220" y="480" width="140" height="70" as="geometry" />
        </mxCell>
      </root>
    </mxGraphModel>
  </diagram>
</mxfile>
